# xmcd
#
# Track frame offsets:
# 150
# 8094
# 19131
# 24606
# 36324
# 46071
# 52565
# 63553
# 67291
# 80808
# 87669
# 96195
#
# Disc length: 1478 seconds
#
# Revision: 1
# Processed by: cddbd v1.5.2PL0 Copyright (c) Steve Scherf et al.
# Submitted via: CedeCatalogueitor 2.6.0.6 http://personales.ya.com/cdcatalogueitor
#
DISCID=9c05c40c
DTITLE=Estrategia Lo Capto! - Gran Bola De Nieve
DYEAR=1900
DGENRE=
TTITLE0=Massanassa
TTITLE1=Cambio Vatio Nazi Por Muerte Segura
TTITLE2=100 Grupos
TTITLE3=Dama Doma
TTITLE4=Bocadillo Humanitario
TTITLE5=Eres Hum-Ano
TTITLE6=Entrada A Tunez
TTITLE7=Palabras Rellenas De Grasa
TTITLE8=Llamame Jose
TTITLE9=Caballo De Tripoli
TTITLE10=Saltitos Hacia Atras
TTITLE11=Frankenstein
EXTD=
EXTT0=
EXTT1=
EXTT2=
EXTT3=
EXTT4=
EXTT5=
EXTT6=
EXTT7=
EXTT8=
EXTT9=
EXTT10=
EXTT11=
PLAYORDER=
